<svg xmlns="http://www.w3.org/2000/svg" version="1.1" xmlns:xlink="http://www.w3.org/1999/xlink" xmlns:svgjs="http://svgjs.com/svgjs" width="1000" height="1000"><rect width="1000" height="1000" rx="250" ry="250" fill="#8774e7"></rect><g transform="matrix(1.5625,0,0,1.5625,200.0000010728836,100.00736427307129)"><svg xmlns="http://www.w3.org/2000/svg" version="1.1" xmlns:xlink="http://www.w3.org/1999/xlink" xmlns:svgjs="http://svgjs.com/svgjs" width="384" height="512"><svg xmlns="http://www.w3.org/2000/svg" viewBox="0 0 384 512"><!--! Font Awesome Pro 6.4.0 by @fontawesome - https://fontawesome.com License - https://fontawesome.com/license (Commercial License) Copyright 2023 Fonticons, Inc. --><path d="M221.5 51.7C216.6 39.8 204.9 32 192 32s-24.6 7.8-29.5 19.7l-120 288-40 96c-6.8 16.3 .9 35 17.2 41.8s35-.9 41.8-17.2L93.3 384H290.7l31.8 76.3c6.8 16.3 25.5 24 41.8 17.2s24-25.5 17.2-41.8l-40-96-120-288zM264 320H120l72-172.8L264 320z"></path></svg></svg></g></svg>